<svg width="49" height="30" viewBox="0 0 49 30" fill="none" xmlns="http://www.w3.org/2000/svg">
<path d="M40.2502 20.9732C41.9937 20.7562 45.8387 20.2892 46.5233 21.1901C47.2075 22.0745 45.7575 25.7955 45.1056 27.4471C44.9102 27.9478 45.3338 28.1479 45.7737 27.7642C48.6413 25.2947 49.3909 20.1388 48.8044 19.388C48.2176 18.6542 43.1831 18.0198 40.1197 20.2224C39.6472 20.5727 39.7287 21.04 40.2502 20.9732Z" fill="#FF9900"/>
<path d="M24.4455 30C31.1423 30 38.9304 27.8473 44.2912 23.793C45.1709 23.1256 44.4051 22.1079 43.5089 22.525C37.4966 25.1278 30.963 26.3961 25.0158 26.3961C16.201 26.3961 7.67948 23.9101 0.771363 19.8054C0.168059 19.4383 -0.287969 20.0723 0.216931 20.5397C6.60429 26.446 15.0605 30 24.4455 30Z" fill="#FF9900"/>
<path d="M13.8057 10.8953C13.8057 11.5128 13.8708 12.0132 13.9847 12.3803C14.1295 12.7932 14.3039 13.1947 14.5064 13.5815C14.5877 13.7151 14.6204 13.8487 14.6204 13.9654C14.6204 14.1325 14.5226 14.2995 14.3106 14.4662L13.2843 15.167C13.1377 15.2668 12.9907 15.3171 12.8606 15.3171C12.6975 15.3171 12.5347 15.2334 12.3719 15.0833C12.1522 14.8417 11.9557 14.5791 11.7851 14.2991C11.603 13.9785 11.4344 13.65 11.2799 13.3146C10.0092 14.8498 8.4123 15.6174 6.48978 15.6174C5.12104 15.6174 4.02968 15.2169 3.23122 14.4162C2.43275 13.6152 2.02527 12.547 2.02527 11.2125C2.02527 9.79403 2.51399 8.64278 3.50794 7.77529C4.50189 6.90747 5.82176 6.4739 7.50025 6.4739C8.05402 6.4739 8.6243 6.52384 9.22727 6.60718C9.82992 6.69086 10.4491 6.82413 11.1009 6.97428V5.75623C11.1009 4.48824 10.84 3.60389 10.3348 3.08663C9.81374 2.56938 8.93371 2.31936 7.67922 2.31936C7.10894 2.31936 6.52248 2.38583 5.9195 2.53598C5.32048 2.68219 4.73241 2.87185 4.15978 3.1035C3.97451 3.18842 3.78401 3.26089 3.5895 3.32046C3.47558 3.35353 3.39401 3.3704 3.32863 3.3704C3.10078 3.3704 2.98653 3.20372 2.98653 2.85315V2.0356C2.98653 1.76871 3.01955 1.56829 3.10078 1.45188C3.18201 1.3348 3.32863 1.21805 3.55681 1.10097C4.12709 0.800676 4.81163 0.550654 5.60976 0.350232C6.40822 0.133615 7.25589 0.0330663 8.15176 0.0330663C10.0908 0.0330663 11.5081 0.483847 12.4205 1.38473C13.3167 2.28562 13.773 3.65416 13.773 5.48934V10.8953H13.8057ZM7.1905 13.4317C7.72809 13.4317 8.2822 13.3314 8.86866 13.1314C9.45512 12.9309 9.97653 12.5638 10.4164 12.0635C10.6772 11.7463 10.8727 11.3961 10.9705 10.9955C11.0682 10.595 11.1333 10.1112 11.1333 9.544V8.8432C10.6392 8.72013 10.1388 8.62551 9.63443 8.55978C9.12647 8.49359 8.61496 8.46 8.10289 8.45923C7.01119 8.45923 6.21273 8.67618 5.67514 9.12663C5.13755 9.57741 4.87668 10.2114 4.87668 11.0455C4.87668 11.8296 5.07217 12.4137 5.47965 12.8142C5.87063 13.2312 6.44091 13.4317 7.19017 13.4317H7.1905ZM20.274 15.2334C19.9807 15.2334 19.7853 15.1835 19.6548 15.0667C19.5247 14.9665 19.4105 14.7327 19.3127 14.4159L15.4839 1.51835C15.3861 1.18431 15.3373 0.967694 15.3373 0.85095C15.3373 0.584058 15.4674 0.43391 15.7282 0.43391H17.3248C17.6346 0.43391 17.8466 0.483847 17.9605 0.600591C18.0909 0.700802 18.1883 0.934628 18.2864 1.25146L21.0239 12.2969L23.5656 1.25146C23.6468 0.91742 23.7445 0.700802 23.875 0.600591C24.0054 0.50038 24.2333 0.43391 24.5268 0.43391H25.8302C26.1399 0.43391 26.3516 0.483847 26.482 0.600591C26.6125 0.700802 26.7264 0.934628 26.7914 1.25146L29.3658 12.4306L32.1849 1.25146C32.2823 0.91742 32.3962 0.700802 32.5105 0.600591C32.6409 0.50038 32.8526 0.43391 33.1461 0.43391H34.6611C34.922 0.43391 35.0686 0.567188 35.0686 0.85095C35.0686 0.934291 35.0525 1.01763 35.0359 1.11784C35.0105 1.26011 34.9723 1.3997 34.922 1.53488L30.9954 14.4331C30.8973 14.7668 30.7834 14.9834 30.653 15.0836C30.5229 15.1838 30.3109 15.2506 30.0338 15.2506H28.6327C28.323 15.2506 28.111 15.2004 27.9809 15.0836C27.8508 14.9669 27.7365 14.7499 27.6715 14.4162L25.146 3.6545L22.6367 14.3997C22.5551 14.7334 22.4574 14.9503 22.3269 15.0671C22.1968 15.1838 21.9686 15.2338 21.6754 15.2338L20.274 15.2334ZM41.2113 15.6842C40.364 15.6842 39.5166 15.584 38.702 15.3839C37.8874 15.1835 37.252 14.9665 36.8284 14.7162C36.5675 14.566 36.3885 14.399 36.3231 14.2492C36.2597 14.1019 36.2265 13.9428 36.2254 13.7819V12.9309C36.2254 12.5807 36.3558 12.4137 36.6002 12.4137C36.6979 12.4137 36.7957 12.4306 36.8934 12.4636C36.9911 12.4974 37.1378 12.5638 37.3009 12.6306C37.8764 12.8898 38.4772 13.0854 39.0933 13.2144C39.7448 13.348 40.3805 13.4148 41.032 13.4148C42.0586 13.4148 42.8571 13.2312 43.4109 12.8641C43.965 12.497 44.2582 11.9632 44.2582 11.279C44.2582 10.812 44.1116 10.4284 43.8184 10.1112C43.5251 9.79402 42.971 9.5106 42.1726 9.24371L39.8102 8.49263C38.6208 8.10899 37.7407 7.54181 37.2031 6.79073C36.6656 6.05652 36.3885 5.23898 36.3885 4.37149C36.3885 3.67069 36.5351 3.05323 36.8284 2.51945C37.1216 1.98566 37.5126 1.51835 38.0016 1.15125C38.4903 0.76761 39.0441 0.483847 39.6959 0.283763C40.3478 0.0833405 41.032 0 41.7489 0C42.1075 0 42.4823 0.0168705 42.8406 0.0668073C43.2154 0.116744 43.5575 0.183551 43.8996 0.250359C44.2255 0.333699 44.5353 0.41704 44.8285 0.516913C45.1217 0.617462 45.3499 0.717335 45.5127 0.817546C45.7409 0.951161 45.904 1.08444 46.0017 1.23459C46.0995 1.3682 46.1484 1.55175 46.1484 1.78524V2.56972C46.1484 2.92029 46.0179 3.10384 45.7736 3.10384C45.6431 3.10384 45.4315 3.03704 45.1544 2.90342C44.2255 2.46985 43.1827 2.25289 42.0259 2.25289C41.0974 2.25289 40.364 2.40304 39.8591 2.71987C39.3538 3.03703 39.0933 3.52088 39.0933 4.20515C39.0933 4.67213 39.2561 5.0723 39.582 5.38946C39.9079 5.70663 40.5106 6.0238 41.3741 6.30722L43.6879 7.0583C44.8612 7.44193 45.7082 7.97605 46.2134 8.65999C46.7186 9.34392 46.963 10.1281 46.963 10.9959C46.963 11.7132 46.8164 12.3641 46.5393 12.9313C46.2461 13.4985 45.8551 13.9992 45.3499 14.3997C44.8447 14.8167 44.242 15.117 43.5413 15.334C42.8082 15.5675 42.0421 15.6842 41.2113 15.6842Z" fill="#252F3E"/>
</svg>
