<svg width="44" height="30" viewBox="0 0 44 30" fill="none" xmlns="http://www.w3.org/2000/svg">
<path d="M10.5158 27.3302H8.82805C8.76837 24.4531 8.604 21.7483 8.33527 19.2138H8.32026L5.75068 27.3302H4.46572L1.91146 19.2138H1.89678C1.7073 21.6472 1.58793 24.3526 1.53836 27.3302H0C0.0991439 23.7094 0.348308 20.3149 0.746515 17.1464H2.83832L5.27289 24.6293H5.28789L7.73747 17.1464H9.73894C10.1773 20.8577 10.4362 24.2525 10.5158 27.3302ZM17.8351 19.8166C17.148 23.5826 16.2413 26.319 15.1162 28.0271C14.2395 29.3419 13.2791 30 12.2332 30C11.9543 30 11.6103 29.9151 11.2026 29.7464V28.8383C11.4019 28.8673 11.6357 28.8838 11.9044 28.8838C12.393 28.8838 12.7857 28.7481 13.085 28.476C13.4431 28.1447 13.6222 27.7722 13.6222 27.3601C13.6222 27.0775 13.4826 26.4998 13.2041 25.625L11.352 19.8162H13.01L14.3393 24.1606C14.6381 25.1471 14.7627 25.8358 14.7128 26.2281C15.4397 24.2673 15.9475 22.1294 16.2368 19.8159H17.8351V19.8166Z" fill="#5D87A1"/>
<path d="M40.3007 27.3301H35.5065V17.1463H37.1192V26.0765H40.3007V27.3301ZM34.2516 27.5761L32.3978 26.6522C32.5622 26.5159 32.7194 26.3683 32.8609 26.1973C33.6489 25.2626 34.0419 23.8802 34.0419 22.0493C34.0419 18.6801 32.7328 16.9948 30.1136 16.9948C28.8293 16.9948 27.8274 17.4223 27.1109 18.2776C26.3236 19.2131 25.9307 20.5905 25.9307 22.4116C25.9307 24.2017 26.279 25.5149 26.9759 26.3479C27.6135 27.1025 28.5746 27.4802 29.8599 27.4802C30.3393 27.4802 30.7792 27.421 31.1801 27.3014L33.5934 28.7203L34.2516 27.5761ZM28.2465 25.2922C27.8382 24.6289 27.634 23.5637 27.634 22.095C27.634 19.5309 28.4053 18.2473 29.9496 18.2473C30.7567 18.2473 31.3483 18.5543 31.7267 19.1669C32.1343 19.8313 32.3395 20.8869 32.3395 22.3352C32.3395 24.9204 31.5675 26.2132 30.0243 26.2132C29.2168 26.2135 28.6251 25.9075 28.2465 25.2922ZM25.2278 24.5074C25.2278 25.371 24.9141 26.0794 24.2873 26.6344C23.6598 27.1871 22.8184 27.4641 21.764 27.4641C20.7778 27.4641 19.8216 27.1459 18.896 26.5129L19.3294 25.6384C20.1258 26.0412 20.8469 26.2415 21.4943 26.2415C22.1019 26.2415 22.5767 26.1055 22.9211 25.8357C23.2652 25.565 23.4703 25.1852 23.4703 24.705C23.4703 24.0999 23.0525 23.5828 22.2861 23.1497C21.5794 22.7577 20.166 21.9383 20.166 21.9383C19.3999 21.3744 19.0163 20.769 19.0163 19.7717C19.0163 18.9463 19.3024 18.28 19.8747 17.7731C20.4477 17.2642 21.1871 17.0106 22.0934 17.0106C23.0294 17.0106 23.8803 17.2638 24.6467 17.7651L24.2579 18.64C23.6024 18.3587 22.9554 18.218 22.3171 18.218C21.8002 18.218 21.401 18.3435 21.1235 18.5955C20.8437 18.8465 20.6711 19.1676 20.6711 19.5615C20.6711 20.1636 21.0977 20.6873 21.885 21.129C22.6012 21.5216 24.0499 22.3552 24.0499 22.3552C24.8355 22.9181 25.2278 23.5179 25.2278 24.5074Z" fill="#F8981D"/>
<path d="M42.3253 13.7354C41.3502 13.7104 40.5952 13.8095 39.9615 14.0803C39.7785 14.154 39.4876 14.154 39.4622 14.3876C39.561 14.4864 39.5724 14.6458 39.6582 14.7821C39.8043 15.0282 40.059 15.3592 40.2915 15.5318C40.5469 15.7294 40.8032 15.925 41.072 16.0973C41.5458 16.3934 42.083 16.5657 42.5448 16.8608C42.8138 17.0324 43.0813 17.2544 43.3506 17.4392C43.4831 17.5376 43.5678 17.6974 43.7397 17.759V17.7214C43.6536 17.6108 43.6292 17.4507 43.5447 17.3275L43.1788 16.9711C42.8252 16.4916 42.3859 16.0729 41.9121 15.7291C41.522 15.4577 40.6689 15.0888 40.5107 14.6349L40.4859 14.6099C40.754 14.5845 41.072 14.4864 41.3267 14.4109C41.7412 14.3006 42.1192 14.3256 42.5444 14.2153C42.7401 14.1659 42.9342 14.104 43.1305 14.043V13.932C42.91 13.7104 42.7528 13.4159 42.521 13.2064C41.9007 12.6653 41.2171 12.136 40.5107 11.693C40.1324 11.4463 39.6458 11.2875 39.243 11.0777C39.0979 11.0036 38.8533 10.967 38.7678 10.8439C38.5493 10.5731 38.4264 10.2167 38.2679 9.89626C37.9157 9.22006 37.5736 8.46976 37.2696 7.7547C37.0498 7.27513 36.9161 6.79623 36.648 6.35257C35.3924 4.26107 34.0288 2.99431 31.9331 1.75094C31.4827 1.49206 30.9469 1.38172 30.3745 1.24602L29.4604 1.19727C29.2654 1.11097 29.07 0.876792 28.8998 0.766123C28.2045 0.32345 26.4143 -0.636005 25.9029 0.630752C25.5735 1.43145 26.3902 2.21865 26.6707 2.62476C26.8777 2.9067 27.1462 3.22751 27.291 3.54765C27.3767 3.7568 27.4009 3.9788 27.4866 4.19981C27.6817 4.74129 27.864 5.34371 28.1203 5.84896C28.254 6.10653 28.3998 6.37727 28.5707 6.61047C28.6685 6.74682 28.8388 6.8071 28.876 7.02942C28.706 7.27448 28.6927 7.64436 28.5952 7.95199C28.1568 9.34226 28.3281 11.0645 28.9493 12.0862C29.1437 12.3939 29.6075 13.0711 30.2278 12.8115C30.777 12.5902 30.6553 11.889 30.8132 11.274C30.8494 11.1255 30.8256 11.028 30.8986 10.9305V10.9545C31.0685 11.2987 31.2401 11.6304 31.3976 11.9756C31.7756 12.578 32.4337 13.2058 32.9819 13.6231C33.2738 13.8457 33.5051 14.2265 33.8707 14.3625V14.3256H33.8465C33.7725 14.2153 33.6642 14.1659 33.567 14.0803C33.3472 13.8586 33.1039 13.5878 32.9334 13.3421C32.4226 12.6528 31.9706 11.8896 31.5695 11.1021C31.3731 10.72 31.2039 10.3024 31.0457 9.92096C30.972 9.77374 30.972 9.55174 30.8497 9.47763C30.6664 9.74804 30.3993 9.98223 30.2656 10.3136C30.0337 10.8435 30.0096 11.4954 29.9235 12.1732L29.8755 12.1969C29.4875 12.0984 29.3524 11.693 29.205 11.3488C28.8401 10.4746 28.7788 9.07152 29.0954 8.06299C29.1802 7.80509 29.5471 6.99286 29.4007 6.74715C29.3273 6.51165 29.0834 6.3776 28.9497 6.19216C28.7925 5.95897 28.6203 5.66386 28.5107 5.40497C28.2185 4.71626 28.0714 3.95311 27.7567 3.26473C27.6096 2.94392 27.3542 2.61191 27.1475 2.31647C26.9153 1.98446 26.6599 1.75061 26.4763 1.35701C26.4156 1.22164 26.3305 1.00031 26.428 0.853077C26.4518 0.754266 26.5014 0.717377 26.5986 0.692674C26.7564 0.557961 27.2075 0.729233 27.3656 0.803342C27.8173 0.987789 28.195 1.16005 28.572 1.41828C28.7426 1.54179 28.9255 1.77564 29.1444 1.83723H29.4007C29.7898 1.92287 30.2284 1.86095 30.5947 1.97228C31.2401 2.18176 31.8248 2.48906 32.3493 2.82073C33.945 3.84277 35.261 5.29496 36.1493 7.02942C36.2951 7.31202 36.3571 7.57091 36.4901 7.86569C36.7468 8.4691 37.0641 9.08436 37.3188 9.67492C37.5749 10.253 37.8188 10.8432 38.1844 11.3234C38.3667 11.5816 39.0992 11.717 39.4276 11.8524C39.6706 11.9627 40.0489 12.0609 40.268 12.1963C40.6826 12.4542 41.0954 12.7503 41.4852 13.0338C41.6792 13.1814 42.2891 13.489 42.3253 13.7354ZM29.8977 3.04273C29.7295 3.04096 29.5618 3.06179 29.3991 3.10465V3.12935H29.4225C29.5207 3.32599 29.6913 3.46235 29.8129 3.63395C29.9111 3.83124 29.9962 4.02689 30.0924 4.22385L30.1159 4.19948C30.2878 4.07662 30.3732 3.87966 30.3732 3.58421C30.2992 3.49726 30.2878 3.41228 30.2261 3.32599C30.1544 3.2028 29.9962 3.14154 29.8977 3.04273Z" fill="#5D87A1"/>
<path d="M43.4857 27.3283H43.7382V26.0807H43.3595L43.0507 26.9321L42.7151 26.0807H42.3505V27.3283H42.5889V26.3791H42.6022L42.9538 27.3283H43.1355L43.4857 26.3791V27.3283ZM41.4523 27.3283H41.7194V26.2921H42.069V26.0803H41.088V26.2921H41.4516L41.4523 27.3283Z" fill="#F8981D"/>
</svg>
