<svg width="30" height="30" viewBox="0 0 30 30" fill="none" xmlns="http://www.w3.org/2000/svg">
<g clip-path="url(#clip0_16_191)">
<path d="M15 30C23.2843 30 30 23.2843 30 15C30 6.71573 23.2843 0 15 0C6.71573 0 0 6.71573 0 15C0 23.2843 6.71573 30 15 30Z" fill="#13AA52"/>
<path d="M19.0096 13.1672C18.0621 8.98564 15.8229 7.61074 15.5818 7.08545C15.3181 6.71484 15.051 6.05566 15.051 6.05566C15.0466 6.04453 15.0395 6.0249 15.0313 6.00586C15.0041 6.37646 14.99 6.51943 14.6396 6.89326C14.0971 7.31748 11.3133 9.65332 11.0868 14.4041C10.8756 18.835 14.2875 21.4752 14.7489 21.8118L14.8013 21.849V21.8458C14.8043 21.8681 14.9478 22.9005 15.0486 23.9944H15.4101C15.495 23.2212 15.6221 22.4531 15.791 21.6937L15.8203 21.6747C16.0267 21.5267 16.2235 21.3657 16.4095 21.1928L16.4305 21.1737C17.4114 20.2676 19.1748 18.1717 19.1575 14.8301C19.1538 14.2727 19.1044 13.7165 19.0096 13.1672ZM15.0102 19.3102C15.0102 19.3102 15.0102 13.0957 15.2153 13.0969C15.3753 13.0969 15.5824 21.1128 15.5824 21.1128C15.2976 21.0785 15.0102 19.7936 15.0102 19.3102Z" fill="white"/>
</g>
<defs>
<clipPath id="clip0_16_191">
<rect width="30" height="30" fill="white"/>
</clipPath>
</defs>
</svg>
