<svg width="30" height="30" viewBox="0 0 30 30" fill="none" xmlns="http://www.w3.org/2000/svg">
<path d="M14.8768 0.0129383C7.26963 0.0129383 7.7507 3.32304 7.7507 3.32304V6.76252H14.985V7.84073H4.86963C4.86963 7.84073 0 7.23693 0 15.0054C0 22.7739 4.29963 22.458 4.29963 22.458H6.78213V18.8341C6.78213 18.8341 6.64284 14.5073 10.9607 14.5073H18.2057C18.2057 14.5073 22.2471 14.572 22.2471 10.5697V4.00231C22.2471 4.00231 22.8599 0 14.9164 0L14.8768 0.0129383ZM10.8782 2.31707C11.1354 2.31054 11.3887 2.38091 11.6062 2.51927C11.8236 2.65763 11.9954 2.85778 12.0998 3.0944C12.2042 3.33102 12.2365 3.59348 12.1927 3.84859C12.1489 4.1037 12.0308 4.34 11.8536 4.52761C11.6763 4.71522 11.4477 4.84571 11.1967 4.90257C10.9457 4.95944 10.6836 4.94013 10.4435 4.84708C10.2035 4.75404 9.99618 4.59144 9.84794 4.37985C9.69969 4.16825 9.61713 3.91717 9.61069 3.65836V3.63679C9.61069 3.4649 9.64434 3.29469 9.7097 3.13588C9.77507 2.97707 9.87088 2.83278 9.99166 2.71123C10.1124 2.58968 10.2558 2.49327 10.4136 2.42749C10.5715 2.36171 10.7406 2.32785 10.9114 2.32785L10.8782 2.31707Z" fill="url(#paint0_linear_16_200)"/>
<path d="M15.0911 29.9979C22.6982 29.9979 22.2171 26.677 22.2171 26.677V23.2483H14.9839V22.1701H25.1304C25.1304 22.1701 30 22.7178 30 14.9946C30 7.27142 25.7004 7.54205 25.7004 7.54205H23.1857V11.1185C23.1857 11.1185 23.325 15.4453 19.0072 15.4453H11.759C11.759 15.4453 7.71432 15.3839 7.71432 19.3862V25.9977C7.71432 25.9977 7.10146 30 15.045 30H15.0879L15.0911 29.9979ZM19.0897 27.683C18.8325 27.6895 18.5791 27.6191 18.3617 27.4808C18.1442 27.3424 17.9725 27.1423 17.8681 26.9056C17.7637 26.669 17.7313 26.4066 17.7751 26.1514C17.819 25.8963 17.937 25.66 18.1143 25.4724C18.2916 25.2848 18.5202 25.1543 18.7711 25.0975C19.0221 25.0406 19.2842 25.0599 19.5243 25.153C19.7644 25.246 19.9717 25.4086 20.1199 25.6202C20.2681 25.8318 20.3507 26.0829 20.3571 26.3417V26.374C20.3571 26.7212 20.2201 27.0541 19.9762 27.2996C19.7322 27.5451 19.4014 27.683 19.0564 27.683H19.0897Z" fill="url(#paint1_linear_16_200)"/>
<defs>
<linearGradient id="paint0_linear_16_200" x1="2.96481" y1="2.94879" x2="17.2901" y2="17.1517" gradientUnits="userSpaceOnUse">
<stop stop-color="#387EB8"/>
<stop offset="1" stop-color="#366994"/>
</linearGradient>
<linearGradient id="paint1_linear_16_200" x1="11.3866" y1="12.2598" x2="27.7398" y2="26.4466" gradientUnits="userSpaceOnUse">
<stop stop-color="#FFE052"/>
<stop offset="1" stop-color="#FFC331"/>
</linearGradient>
</defs>
</svg>
