<svg width="30" height="30" viewBox="0 0 30 30" fill="none" xmlns="http://www.w3.org/2000/svg">
<g clip-path="url(#clip0_16_62)">
<path d="M8.26577 8.1675L6.32678 6.22852L6.33499 20.2441L6.35819 20.8992C6.3678 21.2074 6.42499 21.5552 6.52038 21.9157L21.8841 27.3333L25.7246 25.6317L25.726 25.627L8.26577 8.1675Z" fill="#00D2B8"/>
<path d="M6.52037 21.9157L6.52131 21.9167C6.52037 21.9103 6.51709 21.9033 6.51709 21.8967C6.51709 21.9033 6.51803 21.9094 6.52037 21.9157ZM25.7246 25.6317L21.8841 27.3333L6.52131 21.9167C6.81475 23.0426 7.46443 24.3082 8.16357 25.0003L13.1773 29.9855L24.3254 30L25.726 25.627L25.7246 25.6317Z" fill="#55DDCA"/>
<path d="M0.355589 15.248C-0.140818 15.7779 0.105745 16.871 0.904964 17.6763L4.35239 21.1523L6.52035 21.9157C6.42496 21.5552 6.36778 21.2074 6.35817 20.8992L6.33496 20.2441L6.32676 6.22852L0.355589 15.248Z" fill="#0081C6"/>
<path d="M22.0102 6.40852C21.6498 6.31641 21.304 6.25946 20.9907 6.24961L20.2983 6.22571L6.32678 6.22758L25.7279 25.627H25.7295L27.4334 21.7828L22.0102 6.40852Z" fill="#0079B3"/>
<path d="M21.9927 6.40479C22.0002 6.40643 22.006 6.40854 22.011 6.40924L22.0103 6.40854C22.006 6.40643 22.0002 6.40643 21.9927 6.40479ZM25.0921 8.05455C24.388 7.34463 23.139 6.69939 22.011 6.40924L27.4335 21.7828L25.7296 25.6271H25.7279L29.8918 24.2972L29.9007 12.8813L25.0921 8.05455Z" fill="#00A4E4"/>
<path d="M21.2506 4.25369L17.7755 0.804155C16.9719 0.0079834 15.8783 -0.239751 15.3498 0.255249L6.32678 6.22759L20.2983 6.22572L20.9907 6.24962C21.304 6.25947 21.6498 6.31642 22.0102 6.40853L21.2506 4.25369Z" fill="#00D2B8"/>
</g>
<defs>
<clipPath id="clip0_16_62">
<rect width="30" height="30" fill="white"/>
</clipPath>
</defs>
</svg>
