<svg width="30" height="30" viewBox="0 0 30 30" fill="none" xmlns="http://www.w3.org/2000/svg">
<path d="M15 30C23.2843 30 30 23.2843 30 15C30 6.71573 23.2843 0 15 0C6.71573 0 0 6.71573 0 15C0 23.2843 6.71573 30 15 30Z" fill="#1794D4"/>
<path d="M17.1429 5.35718H15V7.50003H17.1429V5.35718Z" fill="white"/>
<path d="M8.57141 8.57141H10.7143V10.7143H8.57141V8.57141Z" fill="white"/>
<path d="M4.28743 16.0086C4.47052 19.1171 6.32177 23.5714 12.8572 23.5714C20.1429 23.5714 23.3929 18.2143 24.1072 15.5357C25 15.5357 27 15 27.8572 12.8571C27.3215 12.3214 25.1786 12.3214 24.1072 12.8571C24.1072 12 23.5715 10.1785 22.5 9.64282C21.7857 10.3571 20.6786 12.2143 21.9643 13.9285C21.4286 15 20.0001 15 19.2858 15H5.29601C4.72871 15 4.25406 15.4423 4.28743 16.0086Z" fill="white"/>
<path d="M7.50003 11.7858H5.35718V13.9286H7.50003V11.7858Z" fill="white"/>
<path d="M8.57141 11.7858H10.7143V13.9286H8.57141V11.7858Z" fill="white"/>
<path d="M13.9286 11.7858H11.7858V13.9286H13.9286V11.7858Z" fill="white"/>
<path d="M15 11.7858H17.1429V13.9286H15V11.7858Z" fill="white"/>
<path d="M20.3571 11.7858H18.2142V13.9286H20.3571V11.7858Z" fill="white"/>
<path d="M13.9286 8.57141H11.7858V10.7143H13.9286V8.57141Z" fill="white"/>
<path d="M15 8.57141H17.1429V10.7143H15V8.57141Z" fill="white"/>
</svg>
