<svg width="30" height="30" viewBox="0 0 30 30" fill="none" xmlns="http://www.w3.org/2000/svg">
<path d="M22.3856 23.6573H22.2726V23.5941H22.5769V23.6573H22.4645V23.9728H22.3856V23.6573ZM22.9924 23.6738H22.9907L22.8786 23.9729H22.8274L22.7161 23.6738H22.7148V23.9729H22.6403V23.5942H22.7499L22.8531 23.8624L22.9559 23.5942H23.0651V23.9729H22.9924L22.9924 23.6738Z" fill="#E76F00"/>
<path d="M12.2679 15.9135C12.2679 15.9135 11.4816 16.3708 12.8276 16.5256C14.4582 16.7116 15.2915 16.6849 17.0885 16.3448C17.0885 16.3448 17.5609 16.641 18.2207 16.8976C14.1924 18.624 9.10397 16.7976 12.2679 15.9135ZM11.7757 13.6606C11.7757 13.6606 10.8937 14.3135 12.2407 14.4528C13.9826 14.6325 15.3581 14.6472 17.7384 14.1889C17.7384 14.1889 18.0677 14.5226 18.5854 14.7052C13.715 16.1293 8.29022 14.8175 11.7757 13.6606Z" fill="#5382A1"/>
<path d="M15.9254 9.83904C16.918 10.9818 15.6647 12.0102 15.6647 12.0102C15.6647 12.0102 18.1848 10.7091 17.0274 9.07992C15.9464 7.56053 15.1174 6.80568 19.6053 4.20288C19.6053 4.20283 12.5608 5.96221 15.9254 9.83904Z" fill="#E76F00"/>
<path d="M21.253 17.58C21.253 17.58 21.8349 18.0595 20.6121 18.4304C18.287 19.1348 10.9346 19.3475 8.89214 18.4585C8.15793 18.1391 9.53479 17.6958 9.96789 17.6028C10.4196 17.5048 10.6777 17.5231 10.6777 17.5231C9.86118 16.9479 5.40006 18.6525 8.41167 19.1407C16.6248 20.4726 23.3834 18.5409 21.253 17.58ZM12.6461 11.3265C12.6461 11.3265 8.90618 12.2148 11.3217 12.5373C12.3416 12.6739 14.3747 12.643 16.2685 12.4843C17.8162 12.3538 19.3704 12.0762 19.3704 12.0762C19.3704 12.0762 18.8246 12.3099 18.4298 12.5795C14.632 13.5784 7.29538 13.1137 9.4075 12.092C11.1937 11.2285 12.6461 11.3265 12.6461 11.3265ZM19.355 15.0765C23.2156 13.0704 21.4307 11.1425 20.1847 11.4022C19.8793 11.4658 19.7432 11.5209 19.7432 11.5209C19.7432 11.5209 19.8566 11.3433 20.073 11.2664C22.5378 10.3999 24.4334 13.8222 19.2773 15.1777C19.2773 15.1777 19.3372 15.1243 19.355 15.0765Z" fill="#5382A1"/>
<path d="M17.0275 0C17.0275 0 19.1655 2.13875 14.9996 5.42767C11.6589 8.06586 14.2378 9.57011 14.9982 11.2888C13.0482 9.5294 11.6172 7.98067 12.5773 6.5392C13.9863 4.42325 17.8901 3.39736 17.0275 0Z" fill="#E76F00"/>
<path d="M13.0254 20.5127C16.7312 20.7499 22.4217 20.3811 22.5565 18.6277C22.5565 18.6277 22.2974 19.2923 19.4939 19.8203C16.331 20.4155 12.4299 20.346 10.1162 19.9646C10.1163 19.9644 10.5899 20.3565 13.0254 20.5127Z" fill="#5382A1"/>
<path d="M12.4182 27.2126C12.0686 27.5159 11.6994 27.6861 11.3681 27.6861C10.8951 27.6861 10.6396 27.4025 10.6396 26.9476C10.6396 26.4556 10.9134 26.0959 12.0117 26.0959H12.4181L12.4182 27.2126ZM13.3828 28.301V24.9321C13.3828 24.0714 12.892 23.5036 11.7085 23.5036C11.0176 23.5036 10.4124 23.6742 9.92049 23.8918L10.0625 24.4881C10.4498 24.3459 10.9511 24.2136 11.4432 24.2136C12.1249 24.2136 12.4182 24.4881 12.4182 25.0556V25.4814H12.0779C10.4215 25.4814 9.67435 26.1244 9.67435 27.0895C9.67435 27.9224 10.1667 28.3958 11.0939 28.3958C11.6898 28.3958 12.1347 28.1497 12.5505 27.7897L12.626 28.3011L13.3828 28.301ZM16.602 28.301H15.399L13.9511 23.5889H15.0017L15.9001 26.484L16.0999 27.3547C16.5544 26.0958 16.8759 24.8186 17.0367 23.5889H18.0587C17.7848 25.1405 17.2921 26.8436 16.602 28.301ZM21.2173 27.2126C20.867 27.5159 20.4972 27.6861 20.1658 27.6861C19.6937 27.6861 19.4375 27.4025 19.4375 26.9476C19.4375 26.4556 19.7119 26.0959 20.8101 26.0959H21.2173V27.2126ZM22.1818 28.301V24.9321C22.1818 24.0714 21.6897 23.5036 20.5076 23.5036C19.8162 23.5036 19.2108 23.6742 18.7191 23.8918L18.8609 24.4881C19.2483 24.3459 19.7506 24.2136 20.2423 24.2136C20.9235 24.2136 21.2173 24.4881 21.2173 25.0556V25.4814H20.8764C19.2196 25.4814 18.4726 26.1244 18.4726 27.0895C18.4726 27.9224 18.9647 28.3958 19.8916 28.3958C20.4879 28.3958 20.9326 28.1497 21.3492 27.7897L21.4249 28.3011L22.1818 28.301ZM8.61668 29.1011C8.3417 29.5026 7.89755 29.8203 7.41132 30L6.93506 29.4395C7.30516 29.2496 7.62257 28.9429 7.77005 28.6573C7.89761 28.4032 7.95041 28.0757 7.95041 27.2927V21.9131H8.97525V27.219C8.97519 28.2658 8.8915 28.6887 8.61668 29.1011Z" fill="#E76F00"/>
</svg>
