<svg width="49" height="30" viewBox="0 0 49 30" fill="none" xmlns="http://www.w3.org/2000/svg">
<path d="M24.2303 29.9999C24.0642 29.9999 23.9092 29.9556 23.7652 29.8781L22.2923 29.0033C22.0708 28.8815 22.1816 28.8372 22.248 28.815C22.547 28.7153 22.6024 28.6932 22.9125 28.516C22.9457 28.4939 22.99 28.5049 23.0232 28.5271L24.1528 29.2026C24.1971 29.2248 24.2525 29.2248 24.2857 29.2026L28.7043 26.6445C28.7486 26.6223 28.7707 26.578 28.7707 26.5226V21.4174C28.7707 21.3621 28.7486 21.3178 28.7043 21.2956L24.2857 18.7486C24.2414 18.7264 24.186 18.7264 24.1528 18.7486L19.7342 21.2956C19.6899 21.3178 19.6677 21.3731 19.6677 21.4174V26.5226C19.6677 26.5669 19.6899 26.6223 19.7342 26.6445L20.9413 27.3421C21.5946 27.6744 22.0044 27.2868 22.0044 26.8992V21.8604C22.0044 21.794 22.0598 21.7275 22.1373 21.7275H22.7021C22.7685 21.7275 22.835 21.7829 22.835 21.8604V26.8992C22.835 27.774 22.3588 28.2834 21.5282 28.2834C21.2735 28.2834 21.0742 28.2834 20.5094 28.0066L19.3466 27.3421C19.0587 27.176 18.8815 26.8659 18.8815 26.5337V21.4285C18.8815 21.0963 19.0587 20.7862 19.3466 20.6201L23.7652 18.062C24.042 17.9069 24.4186 17.9069 24.6954 18.062L29.114 20.6201C29.402 20.7862 29.5791 21.0963 29.5791 21.4285V26.5337C29.5791 26.8659 29.402 27.176 29.114 27.3421L24.6954 29.9003C24.5515 29.9667 24.3853 29.9999 24.2303 29.9999ZM25.5924 26.4894C23.6544 26.4894 23.2558 25.6035 23.2558 24.8504C23.2558 24.784 23.3111 24.7176 23.3887 24.7176H23.9645C24.031 24.7176 24.0863 24.7618 24.0863 24.8283C24.1749 25.4152 24.4296 25.7032 25.6035 25.7032C26.5337 25.7032 26.9324 25.4927 26.9324 24.9944C26.9324 24.7065 26.8217 24.4961 25.3709 24.3521C24.1639 24.2303 23.4108 23.9645 23.4108 23.0011C23.4108 22.104 24.1639 21.5725 25.4263 21.5725C26.8438 21.5725 27.5415 22.0597 27.6301 23.1229C27.6301 23.1561 27.619 23.1893 27.5969 23.2225C27.5747 23.2447 27.5415 23.2668 27.5083 23.2668H26.9324C26.877 23.2668 26.8217 23.2225 26.8106 23.1672C26.6777 22.5581 26.3344 22.3587 25.4263 22.3587C24.4075 22.3587 24.2857 22.7131 24.2857 22.9789C24.2857 23.3001 24.4296 23.3997 25.8028 23.5769C27.165 23.7541 27.8073 24.0088 27.8073 24.9612C27.7962 25.9357 26.9989 26.4894 25.5924 26.4894Z" fill="#539E43"/>
<path d="M10.5205 10.0332C10.5205 9.83391 10.4097 9.64565 10.2326 9.54598L5.5371 6.84388C5.45958 6.79958 5.37099 6.77743 5.28239 6.76636H5.2381C5.1495 6.76636 5.06091 6.79958 4.98339 6.84388L0.287929 9.54598C0.110742 9.64565 0 9.83391 0 10.0332L0.0110742 17.2979C0.0110742 17.3976 0.0664452 17.4973 0.155039 17.5416C0.243632 17.5969 0.354374 17.5969 0.431894 17.5416L3.22259 15.9469C3.39978 15.8472 3.51052 15.6589 3.51052 15.4596V12.0598C3.51052 11.8605 3.62126 11.6722 3.79845 11.5726L4.98339 10.886C5.07198 10.8306 5.17165 10.8084 5.27132 10.8084C5.37099 10.8084 5.47065 10.8306 5.54817 10.886L6.73311 11.5726C6.9103 11.6722 7.02104 11.8605 7.02104 12.0598V15.4596C7.02104 15.6589 7.13178 15.8472 7.30897 15.9469L10.0997 17.5416C10.1883 17.5969 10.299 17.5969 10.3876 17.5416C10.4762 17.4973 10.5316 17.3976 10.5316 17.2979L10.5205 10.0332Z" fill="#333333"/>
<path d="M33.0897 0.0332226C33.0011 -0.0110742 32.8903 -0.0110742 32.8128 0.0332226C32.7242 0.0885936 32.6689 0.177187 32.6689 0.276855V7.47508C32.6689 7.54153 32.6356 7.60797 32.5692 7.65227C32.5028 7.68549 32.4363 7.68549 32.3699 7.65227L31.196 6.97674C31.0188 6.87708 30.8084 6.87708 30.6312 6.97674L25.9358 9.68992C25.7586 9.78959 25.6478 9.97785 25.6478 10.1772V15.5925C25.6478 15.7918 25.7586 15.9801 25.9358 16.0797L30.6312 18.7929C30.8084 18.8926 31.0188 18.8926 31.196 18.7929L35.8915 16.0797C36.0686 15.9801 36.1794 15.7918 36.1794 15.5925V2.09302C36.1794 1.88261 36.0686 1.69435 35.8915 1.59468L33.0897 0.0332226ZM32.6578 13.8095C32.6578 13.8649 32.6356 13.9092 32.5913 13.9313L30.9856 14.8616C30.9413 14.8837 30.8859 14.8837 30.8416 14.8616L29.2359 13.9313C29.1916 13.9092 29.1694 13.8538 29.1694 13.8095V11.9491C29.1694 11.8937 29.1916 11.8494 29.2359 11.8272L30.8416 10.897C30.8859 10.8749 30.9413 10.8749 30.9856 10.897L32.5913 11.8272C32.6356 11.8494 32.6578 11.9048 32.6578 11.9491V13.8095Z" fill="#333333"/>
<path d="M48.7154 11.9048C48.8926 11.8051 48.9923 11.6169 48.9923 11.4175V10.0997C48.9923 9.90036 48.8815 9.71209 48.7154 9.61243L44.0532 6.91032C43.876 6.81065 43.6656 6.81065 43.4884 6.91032L38.7929 9.6235C38.6157 9.72317 38.505 9.91143 38.505 10.1108V15.526C38.505 15.7254 38.6157 15.9136 38.7929 16.0133L43.4552 18.6711C43.6324 18.7708 43.8428 18.7708 44.0089 18.6711L46.8328 17.0986C46.9214 17.0543 46.9768 16.9546 46.9768 16.855C46.9768 16.7553 46.9214 16.6556 46.8328 16.6113L42.1152 13.8981C42.0266 13.8428 41.9712 13.7542 41.9712 13.6545V11.9602C41.9712 11.8605 42.0266 11.7608 42.1152 11.7165L43.5881 10.8749C43.6767 10.8195 43.7874 10.8195 43.876 10.8749L45.3489 11.7165C45.4375 11.7719 45.4928 11.8605 45.4928 11.9602V13.2891C45.4928 13.3887 45.5482 13.4884 45.6368 13.5327C45.7254 13.5881 45.8361 13.5881 45.9247 13.5327L48.7154 11.9048Z" fill="#333333"/>
<path d="M43.6987 11.65C43.7319 11.6279 43.7762 11.6279 43.8095 11.65L44.7065 12.1705C44.7397 12.1927 44.7618 12.2259 44.7618 12.2702V13.3112C44.7618 13.3555 44.7397 13.3887 44.7065 13.4108L43.8095 13.9313C43.7762 13.9535 43.7319 13.9535 43.6987 13.9313L42.8017 13.4108C42.7685 13.3887 42.7463 13.3555 42.7463 13.3112V12.2702C42.7463 12.2259 42.7685 12.1927 42.8017 12.1705L43.6987 11.65Z" fill="#539E43"/>
<path d="M18.372 6.93254C18.1949 6.83287 17.9844 6.83287 17.8073 6.93254L13.145 9.62357C12.9678 9.72324 12.8682 9.9115 12.8682 10.1108V15.504C12.8682 15.7033 12.9789 15.8916 13.145 15.9912L17.8073 18.6823C17.9844 18.7819 18.1949 18.7819 18.372 18.6823L23.0343 15.9912C23.2115 15.8916 23.3111 15.7033 23.3111 15.504V10.1108C23.3111 9.9115 23.2004 9.72324 23.0343 9.62357L18.372 6.93254Z" fill="url(#paint0_linear_16_160)"/>
<mask id="mask0_16_160" style="mask-type:luminance" maskUnits="userSpaceOnUse" x="12" y="6" width="12" height="13">
<path d="M18.372 6.93254C18.1949 6.83287 17.9844 6.83287 17.8073 6.93254L13.145 9.62357C12.9678 9.72324 12.8682 9.9115 12.8682 10.1108V15.504C12.8682 15.7033 12.9789 15.8916 13.145 15.9912L17.8073 18.6823C17.9844 18.7819 18.1949 18.7819 18.372 18.6823L23.0343 15.9912C23.2115 15.8916 23.3111 15.7033 23.3111 15.504V10.1108C23.3111 9.9115 23.2004 9.72324 23.0343 9.62357L18.372 6.93254Z" fill="white"/>
</mask>
<g mask="url(#mask0_16_160)">
<path d="M23.0453 9.62348L18.3609 6.93245C18.3166 6.9103 18.2612 6.88815 18.2169 6.87708L12.9678 15.8693C13.0121 15.9247 13.0674 15.969 13.1228 16.0022L17.8072 18.6932C17.9401 18.7708 18.0951 18.7929 18.2391 18.7486L23.1671 9.73422C23.1339 9.68992 23.0896 9.6567 23.0453 9.62348Z" fill="url(#paint1_linear_16_160)"/>
</g>
<mask id="mask1_16_160" style="mask-type:luminance" maskUnits="userSpaceOnUse" x="12" y="6" width="12" height="13">
<path d="M18.372 6.93254C18.1949 6.83287 17.9844 6.83287 17.8073 6.93254L13.145 9.62357C12.9678 9.72324 12.8682 9.9115 12.8682 10.1108V15.504C12.8682 15.7033 12.9789 15.8916 13.145 15.9912L17.8073 18.6823C17.9844 18.7819 18.1949 18.7819 18.372 18.6823L23.0343 15.9912C23.2115 15.8916 23.3111 15.7033 23.3111 15.504V10.1108C23.3111 9.9115 23.2004 9.72324 23.0343 9.62357L18.372 6.93254Z" fill="white"/>
</mask>
<g mask="url(#mask1_16_160)">
<path fill-rule="evenodd" clip-rule="evenodd" d="M23.0564 15.9912C23.1893 15.9137 23.289 15.7808 23.3333 15.6368L18.1949 6.86603C18.062 6.84389 17.918 6.85496 17.7962 6.93248L13.145 9.61243L18.1616 18.7597C18.2281 18.7486 18.3056 18.7265 18.372 18.6933L23.0564 15.9912Z" fill="url(#paint2_linear_16_160)"/>
<path fill-rule="evenodd" clip-rule="evenodd" d="M23.0563 15.9912L18.383 18.6822C18.3166 18.7154 18.2501 18.7376 18.1726 18.7487L18.2612 18.9148L23.4439 15.9137V15.8472L23.311 15.6257C23.2889 15.7808 23.1892 15.9137 23.0563 15.9912Z" fill="url(#paint3_linear_16_160)"/>
<path fill-rule="evenodd" clip-rule="evenodd" d="M23.0563 15.9912L18.383 18.6822C18.3166 18.7154 18.2501 18.7376 18.1726 18.7487L18.2612 18.9148L23.4439 15.9137V15.8472L23.311 15.6257C23.2889 15.7808 23.1892 15.9137 23.0563 15.9912Z" fill="url(#paint4_linear_16_160)"/>
</g>
<defs>
<linearGradient id="paint0_linear_16_160" x1="724.958" y1="214.938" x2="213.913" y2="1017.91" gradientUnits="userSpaceOnUse">
<stop stop-color="#41873F"/>
<stop offset="0.3288" stop-color="#418B3D"/>
<stop offset="0.6352" stop-color="#419637"/>
<stop offset="0.9319" stop-color="#3FA92D"/>
<stop offset="1" stop-color="#3FAE2A"/>
</linearGradient>
<linearGradient id="paint1_linear_16_160" x1="454.36" y1="663.061" x2="1734.19" y2="-32.2686" gradientUnits="userSpaceOnUse">
<stop offset="0.1376" stop-color="#41873F"/>
<stop offset="0.4032" stop-color="#54A044"/>
<stop offset="0.7136" stop-color="#66B848"/>
<stop offset="0.9081" stop-color="#6CC04A"/>
</linearGradient>
<linearGradient id="paint2_linear_16_160" x1="-31.5693" y1="602.011" x2="1047.25" y2="602.011" gradientUnits="userSpaceOnUse">
<stop offset="0.0919165" stop-color="#6CC04A"/>
<stop offset="0.2864" stop-color="#66B848"/>
<stop offset="0.5968" stop-color="#54A044"/>
<stop offset="0.8624" stop-color="#41873F"/>
</linearGradient>
<linearGradient id="paint3_linear_16_160" x1="-529.31" y1="180.983" x2="549.505" y2="180.983" gradientUnits="userSpaceOnUse">
<stop offset="0.0919165" stop-color="#6CC04A"/>
<stop offset="0.2864" stop-color="#66B848"/>
<stop offset="0.5968" stop-color="#54A044"/>
<stop offset="0.8624" stop-color="#41873F"/>
</linearGradient>
<linearGradient id="paint4_linear_16_160" x1="706.675" y1="-678.589" x2="433.37" y2="753.53" gradientUnits="userSpaceOnUse">
<stop stop-color="#41873F"/>
<stop offset="0.3288" stop-color="#418B3D"/>
<stop offset="0.6352" stop-color="#419637"/>
<stop offset="0.9319" stop-color="#3FA92D"/>
<stop offset="1" stop-color="#3FAE2A"/>
</linearGradient>
</defs>
</svg>
