<svg width="30" height="30" viewBox="0 0 30 30" fill="none" xmlns="http://www.w3.org/2000/svg">
<path d="M15.0007 18.0822C16.5464 18.0822 17.7994 16.6733 17.7994 14.9353C17.7994 13.1973 16.5464 11.7883 15.0007 11.7883C13.455 11.7883 12.2019 13.1973 12.2019 14.9353C12.2019 16.6733 13.455 18.0822 15.0007 18.0822Z" fill="#00D8FF"/>
<path fill-rule="evenodd" clip-rule="evenodd" d="M15.2063 8.30205C19.9782 8.33859 25.1845 8.73002 28.7582 12.3134C28.8632 12.4188 28.9645 12.5284 29.0632 12.6416C29.9064 13.6079 30.347 15.168 29.6664 16.4519C28.2701 19.0879 25.1476 20.2377 22.1244 20.9453C17.6032 22.0037 12.8757 22.0121 8.35626 21.0803C5.75562 20.5434 3.09623 19.6024 1.2481 17.6339C0.528718 16.8679 -0.086285 15.8602 0.00996547 14.7386C0.166216 12.9241 1.71435 11.7596 3.01748 10.9711C6.63687 8.78132 11.0469 8.2915 15.2063 8.30205ZM14.86 9.12638C10.345 9.16081 5.45812 9.48478 1.97185 12.7308C1.84997 12.844 1.73247 12.9627 1.61935 13.0871C1.54622 13.1672 1.4756 13.2509 1.40747 13.3366C0.795594 14.1096 0.584968 15.3514 1.16247 16.2797C1.74372 17.2137 2.62623 17.8876 3.53498 18.4372C6.93375 20.4921 10.95 20.8568 14.8657 20.8722C18.8301 20.8884 22.9182 20.4822 26.4201 18.4463C27.8151 17.6346 29.3851 16.4428 29.3295 14.908C29.2782 13.4996 28.057 12.6296 27.1426 12.0084C26.8951 11.8404 26.6407 11.6851 26.3826 11.5389C22.9063 9.58036 18.8326 9.11654 14.86 9.12638Z" fill="#00D8FF"/>
<path fill-rule="evenodd" clip-rule="evenodd" d="M21.322 0.000424413C23.0676 0.0503201 23.972 2.41017 24.0914 4.15301C24.1151 4.49947 24.1239 4.84733 24.1201 5.1952C24.1164 5.57187 24.0983 5.94855 24.0689 6.32382C23.7008 10.9704 21.8139 15.3957 19.592 19.4822C17.4188 23.4795 14.7688 27.4655 11.1638 29.318C9.97193 29.9308 8.55443 30.3089 7.49942 29.6251C6.05316 28.6883 5.89504 26.4971 5.92191 24.8351C5.92879 24.4268 5.95254 24.0185 5.99004 23.6116C6.54567 17.596 9.25756 11.8974 12.6513 6.98793C14.6313 4.12349 16.987 1.28225 19.9214 0.253416C20.3832 0.0910797 20.7501 -0.0073059 21.322 0.000424413ZM21.2382 0.824054C19.1889 0.860598 17.3488 2.5683 15.7195 4.34275C11.4357 9.00695 8.2788 15.2102 7.00879 21.7156C6.91067 22.2195 6.82817 22.7269 6.76754 23.2378C6.72067 23.6334 6.68629 24.0312 6.66817 24.4303C6.65379 24.748 6.64879 25.0663 6.65754 25.3847C6.66379 25.6335 6.67817 25.8822 6.70254 26.1296C6.72067 26.3186 6.74504 26.507 6.77567 26.6939C6.79879 26.8324 6.82567 26.9701 6.85692 27.1071C6.88254 27.2182 6.91129 27.3285 6.94379 27.4381C7.19942 28.3046 7.85817 29.1325 8.74255 29.1599C10.8057 29.2231 12.7482 27.5316 14.4276 25.6932C17.3757 22.4668 19.5726 18.4126 21.2889 14.1511C22.6739 10.7104 23.9408 6.97036 23.2332 3.18321C23.2064 3.03984 23.1751 2.89789 23.1395 2.75734C23.1101 2.64279 23.077 2.52964 23.0407 2.4179C22.7657 1.5753 22.1189 0.821946 21.2382 0.824054Z" fill="#00D8FF"/>
<path fill-rule="evenodd" clip-rule="evenodd" d="M8.81824 0.0313125C11.0458 0.0798026 13.0464 1.77977 14.8226 3.68354C18.0639 7.15726 20.4546 11.5762 22.2683 16.227C23.6733 19.8301 24.9658 23.8744 23.8171 27.6763C23.4552 28.8745 22.5396 29.9708 21.3189 29.9989C19.0808 30.0495 17.0064 28.2196 15.2064 26.2497C10.6908 21.3066 7.33823 14.7808 6.18948 7.86002C6.10698 7.36528 6.04135 6.86632 5.99635 6.36525C5.95948 5.95625 5.93635 5.54514 5.9301 5.13402C5.9251 4.80232 5.93135 4.47062 5.95198 4.14033C5.96573 3.91966 5.98573 3.7004 6.0126 3.48184C6.03823 3.27664 6.07073 3.07214 6.11135 2.86974C6.13823 2.73552 6.16823 2.6027 6.2026 2.47058C6.53948 1.1754 7.41573 0.0214739 8.81824 0.0313125ZM8.73386 0.855646C7.42948 0.887972 6.8326 2.61745 6.7126 3.83111C6.68823 4.07989 6.67323 4.33077 6.66635 4.58166C6.6576 4.90212 6.66135 5.22327 6.67573 5.54373C6.88073 10.1812 8.72449 14.6648 10.9495 18.7703C13.0445 22.6355 15.5745 26.4852 19.0545 28.4641C20.0595 29.0355 21.2808 29.4845 22.1489 28.9448C23.2377 28.2674 23.3714 26.6531 23.4296 25.45C23.4452 25.1225 23.4471 24.7936 23.4377 24.4654C23.4264 24.0536 23.3977 23.6425 23.3546 23.2335C22.9533 19.4126 21.4483 15.7969 19.7195 12.3801C17.5683 8.12988 14.9326 3.89366 11.2026 1.68068C10.4301 1.22248 9.59387 0.847915 8.73386 0.855646Z" fill="#00D8FF"/>
</svg>
