<svg width="30" height="30" viewBox="0 0 30 30" fill="none" xmlns="http://www.w3.org/2000/svg">
<g clip-path="url(#clip0_16_188)">
<path d="M25.5 0H4.5C2.01472 0 0 2.01472 0 4.5V25.5C0 27.9853 2.01472 30 4.5 30H25.5C27.9853 30 30 27.9853 30 25.5V4.5C30 2.01472 27.9853 0 25.5 0Z" fill="#3178C6"/>
<path d="M13.6523 16.6406H17.4023V14.2383H6.91406V16.6406H10.6641V27.3633H13.6523V16.6406ZM18.5742 26.7773C19.0488 27.0234 19.6289 27.2051 20.2734 27.3281C20.918 27.4511 21.6211 27.5097 22.3242 27.5097C23.0273 27.5097 23.6719 27.4453 24.3164 27.3105C24.9609 27.1758 25.4883 26.9531 25.957 26.666C26.4316 26.3554 26.8359 25.9629 27.0703 25.4355C27.3047 24.9082 27.4863 24.3222 27.4863 23.5605C27.4863 23.0273 27.4043 22.5644 27.2461 22.1543C27.0879 21.7441 26.8594 21.3926 26.543 21.0996C26.2441 20.789 25.8984 20.5136 25.4883 20.2793C25.0781 20.0449 24.6094 19.7988 24.082 19.5761C23.6953 19.4179 23.3789 19.2656 23.0273 19.1133C22.7227 18.9609 22.459 18.8086 22.2656 18.6562C22.0488 18.498 21.8848 18.334 21.7676 18.164C21.6504 17.9883 21.5918 17.7949 21.5918 17.5781C21.5918 17.3789 21.6439 17.1972 21.75 17.0332C21.8561 16.8691 22.002 16.7344 22.1895 16.6172C22.377 16.5 22.6113 16.4121 22.8926 16.3476C23.168 16.2832 23.4727 16.2539 23.8301 16.2539C24.0762 16.2539 24.334 16.272 24.5918 16.309C24.8613 16.3459 25.1367 16.4027 25.4121 16.4789C25.6875 16.5551 25.957 16.6488 26.2324 16.766C26.4902 16.8832 26.7305 17.0179 26.9355 17.1703V14.4164C26.4902 14.2465 25.998 14.1176 25.4707 14.0355C24.9434 13.9535 24.3574 13.9125 23.6543 13.9125C22.9512 13.9125 22.3066 13.9886 21.6621 14.1351C21.0176 14.2816 20.4902 14.516 20.0215 14.8383C19.5469 15.1547 19.2012 15.5414 18.9082 16.0687C18.6328 16.5609 18.498 17.1234 18.498 17.8265C18.498 18.7054 18.75 19.4672 19.2598 20.0531C19.7637 20.6976 20.5488 21.1664 21.5449 21.6351C21.9492 21.7992 22.3066 21.9633 22.6582 22.1215C23.0098 22.2797 23.3027 22.4437 23.5371 22.6136C23.7891 22.7836 23.9883 22.9711 24.123 23.1703C24.2695 23.3695 24.3457 23.6039 24.3457 23.8734C24.3457 24.0609 24.3 24.2367 24.2109 24.4008C24.1219 24.5648 23.9824 24.7054 23.7949 24.8226C23.6074 24.9398 23.3789 25.0336 23.0918 25.1039C22.8164 25.1683 22.5059 25.2035 22.0957 25.2035C21.4512 25.2035 20.8066 25.0922 20.2207 24.8695C19.5762 24.6469 18.9902 24.3129 18.5742 23.9648V26.7773Z" fill="white"/>
</g>
<defs>
<clipPath id="clip0_16_188">
<rect width="30" height="30" fill="white"/>
</clipPath>
</defs>
</svg>
